<svg xmlns="http://www.w3.org/2000/svg" viewBox="0 0 206.5 206.5"><defs><style>.cls-1{fill:none;stroke:#000;stroke-miterlimit:10;stroke-width:10px;}</style></defs><g id="Layer_2" data-name="Layer 2"><g id="Layer_1-2" data-name="Layer 1"><path d="M122,65.75v8.33h-8.33a8.33,8.33,0,0,0-8.34,8.34v12.5a4.17,4.17,0,0,0,4.17,4.16h11.33l-2.08,8.34H109.5a4.17,4.17,0,0,0-4.17,4.16v29.17H97V111.58a4.17,4.17,0,0,0-4.17-4.16H84.5V99.08h8.33A4.17,4.17,0,0,0,97,94.92V82.42a16.66,16.66,0,0,1,16.67-16.67Zm4.17-8.34h-12.5a25,25,0,0,0-25,25v8.33H80.33a4.17,4.17,0,0,0-4.16,4.17v16.66a4.17,4.17,0,0,0,4.16,4.17h8.34v29.17a4.17,4.17,0,0,0,4.16,4.17H109.5a4.17,4.17,0,0,0,4.17-4.17V115.75H122a4.17,4.17,0,0,0,4-3.15l4.17-16.67a4.18,4.18,0,0,0-3-5.06,4.62,4.62,0,0,0-1-.12h-12.5V82.42h12.5a4.17,4.17,0,0,0,4.16-4.17V61.58A4.17,4.17,0,0,0,126.17,57.41Z"/><rect class="cls-1" x="5" y="5" width="196.5" height="196.5"/></g></g></svg>