<svg xmlns="http://www.w3.org/2000/svg" viewBox="0 0 76.25 32.54"><g id="Layer_2" data-name="Layer 2"><g id="Layer_1-2" data-name="Layer 1"><path d="M61.28,0,56.86,4.42l8.72,8.73h-3.7A17.09,17.09,0,0,1,53,10.7L51.91,10a17.12,17.12,0,0,0-19.17,1l-3.68,2.76h0l-3.69,2.77a10.88,10.88,0,0,1-12.18.63l-1.13-.68A23.54,23.54,0,0,0,0,13.15V19.4a17.12,17.12,0,0,1,8.84,2.45l1.13.68a17.14,17.14,0,0,0,19.16-1l3.68-2.77-1.87-2.49,1.87,2.49L36.49,16a10.9,10.9,0,0,1,12.19-.63l1.14.68A23.39,23.39,0,0,0,61.88,19.4h3.7l-8.72,8.73,4.42,4.41L75.34,18.48a3.13,3.13,0,0,0,0-4.42Z"/></g></g></svg>