<svg xmlns="http://www.w3.org/2000/svg" viewBox="0 0 206.5 206.5"><defs><style>.cls-1{fill:none;stroke:#000;stroke-miterlimit:10;stroke-width:10px;}</style></defs><g id="Layer_2" data-name="Layer 2"><g id="Layer_1-2" data-name="Layer 1"><path d="M65.75,86.25l35.11,24.58a4.17,4.17,0,0,0,4.78,0l35.11-24.58v42a4.2,4.2,0,0,1-4.17,4.17H69.92a4.2,4.2,0,0,1-4.17-4.17Zm-8.34-8.07v50.07a12.53,12.53,0,0,0,12.51,12.5h66.66a12.53,12.53,0,0,0,12.51-12.5V78.17a12.53,12.53,0,0,0-12.51-12.42H69.92A12.53,12.53,0,0,0,57.41,78.18Zm82.9-1.79-37.06,25.94L66.19,76.39A4.38,4.38,0,0,1,67,75.31a4.15,4.15,0,0,1,3-1.23h66.66a4.11,4.11,0,0,1,2.94,1.23,4.17,4.17,0,0,1,.79,1.08Z"/><rect class="cls-1" x="5" y="5" width="196.5" height="196.5"/></g></g></svg>