<svg xmlns="http://www.w3.org/2000/svg" viewBox="0 0 206.5 206.5"><defs><style>.cls-1{fill:none;stroke:#000;stroke-miterlimit:10;stroke-width:10px;}</style></defs><g id="Layer_2" data-name="Layer 2"><g id="Layer_1-2" data-name="Layer 1"><path d="M140.05,75.34a30,30,0,0,1-2.56,2.9A4.14,4.14,0,0,0,136.33,82a13.93,13.93,0,0,1,.25,2.64c0,21.9-10.12,37.38-24.21,45.41-11,6.29-24.74,8.15-38.42,4.67a53.19,53.19,0,0,0,15-7,4.18,4.18,0,0,0-.65-7.26C76.71,115.3,71.06,108.23,68.4,101.3a34.83,34.83,0,0,1-2.17-13.44,47.13,47.13,0,0,1,1.16-9.1c1.64,1.43,3.34,2.95,5.14,4.33a48.32,48.32,0,0,0,30.82,10A4.16,4.16,0,0,0,107.41,89V84.74a14.88,14.88,0,0,1,.15-2.22,14.5,14.5,0,0,1,25.3-7.5,4.16,4.16,0,0,0,4.3,1.27c1-.28,1.93-.6,2.9-1Zm6.63-12.83a41.47,41.47,0,0,1-9.53,5A22.83,22.83,0,0,0,99.31,81.36a23.1,23.1,0,0,0-.23,3.33,39.91,39.91,0,0,1-21.46-8.21,40.77,40.77,0,0,1-8.47-8.82,4.18,4.18,0,0,0-7.21.72s-.55,1.25-1.19,3.17c-.46,1.4-1,3.23-1.48,5.37a55.1,55.1,0,0,0-1.36,10.72,43.2,43.2,0,0,0,2.72,16.65c2.84,7.39,8.19,14.49,17.28,20.09a43.75,43.75,0,0,1-20.31,4,4.17,4.17,0,0,0-2.21,7.81c20.44,11.35,43.45,11.16,61.11,1.08,16.84-9.58,28.42-27.91,28.42-52.64,0-.69,0-1.37-.1-2a36,36,0,0,0,8.32-15.75,4.16,4.16,0,0,0-3.1-5,4.11,4.11,0,0,0-3.36.65Z"/><rect class="cls-1" x="5" y="5" width="196.5" height="196.5"/></g></g></svg>