<svg xmlns="http://www.w3.org/2000/svg" viewBox="0 0 432.86 541.83"><defs><style>.cls-1{fill:#ffac41;stroke:#000;stroke-miterlimit:10;stroke-width:7px;}</style></defs><g id="Layer_2" data-name="Layer 2"><g id="Layer_1-2" data-name="Layer 1"><path class="cls-1" d="M3.5,494.09c166.69-167.48,225.94-225.94,225.94-347.6,0-64-11.06-89.27-46.61-91.64-8.69-1.58-18.17-1.58-34-.79-9.48,42.66-15.8,61.62-34.76,103.49-13.43,3.95-22.91,6.32-39.5,6.32-11.06,0-32.39-1.58-46.61-3.16L37.47,11.4C109.36,5.87,170.19,3.5,248.4,3.5c119.29,0,171.43,61.62,171.43,141.41,0,113.76-136.67,220.41-285.19,311.26v3.16H325c6.32-24.49,11.06-39.5,24.49-66.36,16.59-4.74,25.28-7.11,54.51-6.32,3.16,0,16.59,0,25.28.79l-2.37,150.89H3.5Z"/></g></g></svg>