<svg xmlns="http://www.w3.org/2000/svg" viewBox="0 0 430.54 552.1"><defs><style>.cls-1{fill:#ffac41;stroke:#000;stroke-miterlimit:10;stroke-width:7px;}</style></defs><g id="Layer_2" data-name="Layer 2"><g id="Layer_1-2" data-name="Layer 1"><path class="cls-1" d="M7.56,511.47,3.61,389c10.27-.79,24.49-.79,28.44-.79,33.18,0,44.23,2.37,62.4,7.9,19,38.71,22.91,55.3,32.39,98,10.27,3.16,15.81,4,22.12,4,45.82,0,88.48-11.85,88.48-110.6,0-86.9-38.71-101.91-84.53-101.91H132.37V229.44h24.49c37.92,0,71.1-22.91,71.1-84.53,0-64-5.53-101.12-66.36-101.12-7.9,0-14.22,0-22.91.79-11.85,53.72-16.58,70.31-37.12,113.76-19,5.53-29.23,7.11-50.56,7.11-15.8,0-30-.79-40.29-3.16L17.83,9.82C69.18,5.87,111,3.5,205.84,3.5c132.72,0,210.93,35.55,210.93,126.4,0,62.41-59.25,115.34-174.59,124v3.16C371.74,262.62,427,312.39,427,391.39c0,86.11-79.79,157.21-223.57,157.21C100.78,548.6,39.16,525.69,7.56,511.47Z"/></g></g></svg>