<svg xmlns="http://www.w3.org/2000/svg" viewBox="0 0 491.27 528.4"><defs><style>.cls-1{fill:#ffac41;stroke:#000;stroke-miterlimit:10;stroke-width:7px;}</style></defs><g id="Layer_2" data-name="Layer 2"><g id="Layer_1-2" data-name="Layer 1"><path class="cls-1" d="M183.62,514.63c0-11.06,2.37-18.17,6.32-31.6C201.79,477.5,216,472,243.66,466.44V383.49H3.5v-45L249.19,20.88C257.88,9.82,269.73,3.5,282.37,3.5H426.15V320.29h61.62v63.2H426.15v89.27c22.91,3.16,38.71,7.11,55.3,13.43,3.95,10.27,4.74,16.59,4.74,25.28a91.34,91.34,0,0,1-.79,13.43h-301A52.44,52.44,0,0,1,183.62,514.63Zm60.83-194.34V118.84h-3.16L80.92,318.71v2.37Z"/></g></g></svg>