<svg xmlns="http://www.w3.org/2000/svg" viewBox="0 0 443.18 540.25"><defs><style>.cls-1{fill:#ffac41;stroke:#000;stroke-miterlimit:10;stroke-width:7px;}</style></defs><g id="Layer_2" data-name="Layer 2"><g id="Layer_1-2" data-name="Layer 1"><path class="cls-1" d="M7.55,498,3.6,371.64c10.27-.79,25.28-.79,30-.79,34,0,45,3.16,64,7.9,19.75,41.08,23.7,57.67,34,104.28a122,122,0,0,0,30.81,3.16c64,0,89.27-26.07,89.27-113.76,0-77.42-26.07-101.91-124-101.91-37.92,0-75.84.79-116.13,3.16L35.2,3.5h376l-.79,79.79H97.61L86.55,240.5c67.15-22.12,163.53-45,207-45,67.94,0,146.15,49,146.15,160.37S361.47,536.75,195.57,536.75C81.81,536.75,47.05,519.37,7.55,498Z"/></g></g></svg>