<svg xmlns="http://www.w3.org/2000/svg" viewBox="0 0 490.48 553.7"><defs><style>.cls-1{fill:#ffac41;stroke:#000;stroke-miterlimit:10;stroke-width:7px;}</style></defs><g id="Layer_2" data-name="Layer 2"><g id="Layer_1-2" data-name="Layer 1"><path class="cls-1" d="M3.5,306.09c0-219.62,120.08-300.2,425-302.57l6.32,37.13C236.55,72.25,193.1,103.06,187.57,270.54c46.61-22.12,135.09-53.72,153.26-53.72,94,0,146.15,69.52,146.15,156.42,0,105.86-74.26,177-238.58,177C66.7,550.2,3.5,471.2,3.5,306.09ZM305.28,393c0-79-15-101.91-58.46-101.91-22.12,0-41.08,3.16-60,7.11v19.75c0,29.23.79,54.51,1.58,75.84,2.37,72.68,9.48,105.86,60.83,105.86C295,499.64,305.28,464.09,305.28,393Z"/></g></g></svg>